<svg width="100" height="80" xmlns="http://www.w3.org/2000/svg" xmlns:xlink="http://www.w3.org/1999/xlink" overflow="hidden"><defs><clipPath id="clip0"><rect x="282" y="137" width="100" height="80"/></clipPath></defs><g clip-path="url(#clip0)" transform="translate(-282 -137)"><path d="M39.7778 67.1481C38.5185 66.9778 37.8148 66.8296 37.1259 66.5852 36.9037 66.5037 36.6667 66.4444 36.5852 66.4444 36.2963 66.4444 34.1926 65.5185 33.2741 64.9852 32.3704 64.4593 31.1037 63.5407 30.4889 62.963 30.237 62.7259 29.9481 62.4593 29.8444 62.363 29.6815 62.2074 29.437 61.9407 28.6741 61.0741 28.563 60.9556 28.363 60.6889 28.2222 60.4815 28.0815 60.2815 27.8444 59.9481 27.6889 59.7407 27.5333 59.5407 27.4074 59.3407 27.4074 59.3037 27.4074 59.2667 27.363 59.1778 27.3037 59.1185 26.9704 58.7259 26.0815 56.7778 25.7481 55.7037 25.637 55.3556 25.5037 54.9259 25.4444 54.7407 25.3481 54.4444 25.2296 53.9259 25.0296 52.8889 24.9259 52.3259 24.8741 49.7185 24.9481 48.7037 25.0222 47.7259 25.1926 46.7556 25.3852 46.1481 25.4444 45.963 25.5185 45.6667 25.563 45.4815 25.6 45.2963 25.6741 45.0296 25.7333 44.8889 25.7926 44.7481 25.9407 44.3556 26.0667 44.0222 26.6667 42.4296 28.0148 40.2667 29.1852 39 30.5926 37.4741 31.7481 36.5481 33.4074 35.6148 34.3037 35.1111 35.037 34.763 35.9259 34.4296 36.8519 34.0815 37.1556 33.9852 37.6222 33.8815 37.8815 33.8222 38.1556 33.7407 38.2222 33.7037 38.2963 33.6667 38.5481 33.6148 38.7852 33.5852 39.0296 33.563 39.4889 33.4889 39.8148 33.4222 40.6444 33.2519 43.1481 33.2593 43.9111 33.4296 44.2074 33.5037 44.563 33.5556 44.6889 33.5556 44.8222 33.5556 45.1111 33.6074 45.3333 33.6741 45.5556 33.7333 45.9037 33.8222 46.1037 33.8593 46.3111 33.9037 46.6 34 46.7556 34.0815 46.9037 34.1556 47.0741 34.2222 47.1259 34.2222 47.1778 34.2222 47.3111 34.2667 47.4148 34.3259 47.5185 34.3778 47.6963 34.4444 47.8074 34.4741 47.9259 34.5037 48.5037 34.763 49.1037 35.0518 51.4 36.163 51.7556 36.3259 52.963 36.7778 53.4148 36.9481 54.8148 37.2444 55.7037 37.3556 56.7704 37.4963 58.1185 37.4074 59.7259 37.0963 60.1481 37.0148 60.163 37.0222 60.3778 37.2296 60.6889 37.5185 61.3926 38.4593 61.7111 38.9852 61.8444 39.2222 62.037 39.5407 62.1259 39.6889 62.9037 40.9926 63.7037 42.9852 63.963 44.2963 64.0148 44.563 64.1037 45.0296 64.1704 45.3333 64.237 45.637 64.3111 46.4074 64.3407 47.037L64.3852 48.1926 64.1037 48.3778C63.9407 48.4889 63.6815 48.6444 63.5185 48.7407 61.8741 49.6815 60.5704 50.9259 59.4963 52.5926 59.0593 53.2741 58.2 54.9556 57.9259 55.6667 57.8296 55.9111 57.6889 56.2593 57.6148 56.4444 57.5333 56.6296 57.4148 56.9111 57.3481 57.0667 57.2444 57.3185 56.7407 58.3185 56.3111 59.1481 56.037 59.6741 54.9926 61.1259 54.4296 61.763 53.163 63.1926 51.4593 64.4667 49.637 65.3704 48.637 65.8667 47.4593 66.3481 47.0815 66.4222 46.9556 66.4444 46.7704 66.5111 46.6667 66.563 46.563 66.6148 46.2593 66.6963 46 66.7407 45.7333 66.7852 45.3704 66.8741 45.1852 66.9259 44.6741 67.0889 42.3259 67.3333 41.4074 67.3185 41.1852 67.3185 40.4519 67.2444 39.7778 67.1481ZM44.0815 66.237C44.637 66.1556 45.1259 66.0741 45.1704 66.0444 45.2074 66.0222 45.4519 65.9556 45.7111 65.8963 46.2 65.7852 46.9778 65.5407 47.3852 65.363 47.5111 65.3037 47.6444 65.2593 47.6815 65.2593 47.8 65.2593 49.2593 64.5852 49.7852 64.2889 50.0667 64.1259 50.3037 64 50.3259 64 50.3926 64 51.3037 63.3704 51.6889 63.0593 51.9111 62.8815 52.1111 62.7407 52.1481 62.7407 52.1778 62.7407 52.5852 62.363 53.0444 61.9037 53.7704 61.1852 54.6963 60.0741 55.1259 59.3926 55.5111 58.7926 56.1037 57.6741 56.4074 56.963 56.6815 56.3037 56.7481 56.1481 57.0593 55.4815 57.163 55.2593 57.3185 54.9111 57.4074 54.7037 58.1259 53.037 59.0296 51.5704 60.037 50.4222 60.7926 49.5556 61.3926 49.0593 62.6074 48.2667 63.5333 47.6667 63.5111 47.7111 63.4222 46.3481 63.3481 45.2667 63.2889 44.9037 62.9556 43.5926 62.6519 42.4 61.9481 40.8741 61.1778 39.7481 60.9556 39.4296 60.7037 39.0593 60.6222 38.9333 60.5333 38.8074 60.3333 38.5556 60.1704 38.3704L59.8741 38.0444 58.9185 38.1407C57.3111 38.3111 56.3481 38.3185 55.2963 38.1852 54.7704 38.1185 54.1926 38.0148 54.0148 37.9556 53.8444 37.8963 53.6444 37.8519 53.5852 37.8519 53.437 37.8519 52.3926 37.5037 52.1481 37.3778 52.0444 37.3259 51.8296 37.237 51.6667 37.1852 51.3778 37.0963 50.4 36.6444 49 35.9556 48.637 35.7778 48.2963 35.6296 48.2519 35.6296 48.2074 35.6296 48.1259 35.5852 48.0815 35.5259 48.0296 35.4667 47.8815 35.3926 47.7556 35.363 47.6222 35.3333 47.3852 35.2519 47.2222 35.1778 46.1037 34.6741 44.4963 34.2741 43.0741 34.1333 42.2222 34.0518 39.9556 34.1111 39.6593 34.2222 39.5556 34.2667 39.2074 34.3481 38.8963 34.4074 37.8593 34.6 35.9556 35.3852 35.3407 35.8593 35.2444 35.9407 35.1333 36 35.0963 36 35.0593 36 34.9037 36.0889 34.7556 36.2 34.6074 36.3185 34.4519 36.4296 34.4074 36.4593 32.0222 38.237 30.4 40.2815 29.1259 43.1111 28.563 44.363 28.2148 45.5407 27.837 47.4815 27.6963 48.2296 27.6741 48.563 27.6815 50.1852 27.6815 51.637 27.7111 52.1333 27.8 52.4815 27.8667 52.7259 27.9407 53.1111 27.963 53.3333 28.0296 53.963 28.6 55.9852 28.7852 56.2593 28.8444 56.3407 28.8889 56.4444 28.8889 56.5037 28.8889 56.5556 29.1037 57.0518 29.3704 57.5926 29.637 58.1407 29.8519 58.6074 29.8519 58.6296 29.8519 59.0296 28.3333 56.8889 27.6889 55.5926 27.6296 55.4741 27.5481 55.3037 27.5037 55.2222 27.2815 54.8 26.8741 53.6667 26.6815 52.9259 26.3185 51.5111 26.1704 50.4667 26.1481 49.1481 26.1185 47.7704 25.9556 47.7185 25.837 49.0593 25.7259 50.2667 25.8074 52.3852 25.9926 53.2963 26.1852 54.2222 26.4148 55.0518 26.6 55.4667 26.6741 55.637 26.7407 55.8148 26.7407 55.8593 26.7407 55.9037 26.7852 56.0444 26.8444 56.1704 26.9037 56.3037 27.0593 56.6593 27.1852 56.963 27.3185 57.2667 27.5556 57.7407 27.7111 58.0148 27.8741 58.2815 28 58.5259 28 58.5481 28 58.5704 28.0815 58.7111 28.1852 58.8667 28.6444 59.5778 28.8741 59.8963 29.1111 60.1778 29.2593 60.3407 29.4593 60.6 29.5704 60.7407 29.8444 61.1111 31.1333 62.363 31.7407 62.8444 32.6889 63.5926 33.6741 64.2148 34.763 64.7407 35.3556 65.0222 35.8815 65.2593 35.9259 65.2593 35.9778 65.2593 36.1185 65.3037 36.2444 65.363 36.5556 65.5037 37.5185 65.8222 37.8519 65.8889 37.9926 65.9185 38.2593 65.9852 38.4444 66.0444 38.6296 66.0963 39.2444 66.2 39.8148 66.2667 40.3852 66.3333 40.8667 66.4074 40.8889 66.4222 40.9704 66.4963 43.1333 66.3778 44.0815 66.237Z" transform="matrix(1 0 0 -1 282 217)"/><path d="M40.5556 57.2889C40.037 57.0593 39.4222 56.563 39.1111 56.1037 38.8519 55.7333 38.5185 54.7778 38.5185 54.4222 38.5185 53.8074 38.9407 52.7185 39.3556 52.2444 39.9185 51.6074 40.8963 51.1704 41.7926 51.1704 42.1407 51.1704 42.4519 51.2148 42.6074 51.2815 42.7407 51.3481 42.9333 51.4148 43.0296 51.4444 43.3481 51.5407 44.0518 52.0741 44.2889 52.4074 44.7778 53.0889 44.8963 53.4667 44.8963 54.3481 44.9037 55.0889 44.8815 55.1852 44.6667 55.6593 44.3704 56.3111 43.8222 56.8667 43.1259 57.2148 42.6148 57.4741 42.5704 57.4815 41.8 57.4815 41.1111 57.4741 40.9407 57.4519 40.5556 57.2889ZM42.9259 56.4593C43.5333 56.1556 43.963 55.6 44.1185 54.8963 44.2222 54.437 44.2222 54.3704 44.0963 54 43.9111 53.4444 43.763 53.4593 43.6593 54.037 43.6148 54.2815 43.5481 54.5481 43.4963 54.6296 43.4519 54.7111 43.3407 54.9407 43.2444 55.1333 43.0593 55.5333 42.4519 56.1926 42.1778 56.2963 41.9556 56.3852 41.9481 56.5037 42.1704 56.5852 42.3556 56.6593 42.6074 56.6222 42.9259 56.4593Z" transform="matrix(1 0 0 -1 282 217)"/><path d="M34.8444 48.8963C34.5259 48.8148 34 48.4222 33.7852 48.1037 33.3704 47.4963 33.363 46.3926 33.7704 45.8148 33.8815 45.6519 34.163 45.3852 34.3926 45.2296 34.8 44.9407 34.8222 44.9407 35.4667 44.9407 36.037 44.9407 36.1556 44.963 36.4519 45.1333 36.8519 45.3704 37.1185 45.6444 37.3259 46.037 37.5259 46.4148 37.5481 47.437 37.363 47.7926 37.2 48.1037 36.6815 48.6519 36.4148 48.7926 36.1704 48.9185 35.1852 48.9852 34.8444 48.8963ZM36.6593 48.0148C36.8889 47.8 36.963 47.6667 37 47.3852 37.0593 47 36.9556 46.6296 36.8 46.6815 36.7481 46.7037 36.6667 46.8519 36.6148 47.0222 36.5333 47.3259 36.2 47.8296 36.0222 47.9481 35.9704 47.9778 35.9259 48.0741 35.9259 48.1481 35.9259 48.4074 36.3185 48.3407 36.6593 48.0148Z" transform="matrix(1 0 0 -1 282 217)"/><path d="M43.8148 46.0741C43.7333 46.0444 43.5556 45.8963 43.4148 45.7481 43.1333 45.4593 43.0222 45.0074 43.1111 44.5185 43.2815 43.6 44.3778 43.1333 45.1556 43.6519 45.5407 43.9111 45.7778 44.3704 45.7778 44.8741 45.7778 45.2 45.7407 45.2963 45.4741 45.6296 45.3111 45.837 45.0963 46.037 44.9926 46.0741 44.763 46.163 44.0222 46.163 43.8148 46.0741Z" transform="matrix(1 0 0 -1 282 217)"/><path d="M39.7407 41.7852C39.2741 41.7185 38.8889 41.5778 38.8889 41.4667 38.8889 41.4296 39.0815 41.2222 39.3111 41.0148 39.5481 40.8 40.0074 40.3778 40.3333 40.0741 40.9333 39.5185 41.8963 38.8148 42.0667 38.8148 42.1111 38.8148 42.2815 38.7481 42.4296 38.6741 42.5778 38.6 42.9259 38.5111 43.2074 38.4815 43.6963 38.4296 43.8815 38.3333 43.7037 38.2222 43.5556 38.1259 42.6444 38.0815 42.3333 38.1481 41.4963 38.3259 41.1926 38.4889 39.2593 39.7704 38.4222 40.3259 37.5556 40.8519 37.3333 40.9481 36.7926 41.1704 36.0148 41.3333 35.4963 41.3333 35 41.3333 34.0741 41.1481 33.7704 41 33.6593 40.9407 33.4963 40.8889 33.4074 40.8889 33.3259 40.8889 33.0667 40.8222 32.837 40.7407 32.6074 40.6593 32.1556 40.5704 31.837 40.5481 31.5185 40.5185 31.2593 40.4815 31.2593 40.4667 31.2593 40.4519 31.4148 40.2148 31.6074 39.9407 32.0296 39.3407 33.4222 37.8963 33.9926 37.4593 34.2222 37.2889 34.4444 37.1111 34.4963 37.0667 34.6593 36.9111 35.8444 36.1407 36.0889 36.037 36.2222 35.9704 36.3852 35.8963 36.4444 35.8593 36.5037 35.8148 36.7407 35.7037 36.963 35.6 37.3259 35.437 37.563 35.3481 38.4444 35.037 39.0815 34.8148 40.8741 34.5556 41.7407 34.563 42.7259 34.5704 44.1407 34.7852 45.3333 35.1037 46.4074 35.3926 46.6889 35.4815 47 35.6296 47.1704 35.7111 47.3481 35.7778 47.4 35.7778 47.4444 35.7778 47.6148 35.8444 47.763 35.9185 47.9111 35.9926 48.3333 36.2074 48.6963 36.3852 50.2148 37.1259 51.6444 38.2222 52.5407 39.3407 52.6889 39.5259 52.8148 39.7185 52.8148 39.763 52.8148 39.8074 52.5704 39.6741 52.2667 39.4593 51.3778 38.8296 50.5926 38.4444 50.2074 38.4444 49.9556 38.4444 49.8519 38.5926 50.037 38.6963 50.2889 38.8444 51.2519 39.7926 51.3037 39.9407 51.3704 40.1556 51.3111 40.1704 50.9111 40.0444 49.7481 39.6741 48.8222 39.6074 47.8889 39.8222 47.1259 40 45.4222 40.5556 45.2074 40.6889 45.1556 40.7185 44.9407 40.8074 44.7259 40.8815 44.5111 40.9556 44.1481 41.0963 43.9259 41.1852 43.7037 41.2741 43.3037 41.4074 43.037 41.4815 42.7704 41.5556 42.4444 41.6519 42.3111 41.6963 41.9852 41.7926 40.2889 41.8519 39.7407 41.7852Z" transform="matrix(1 0 0 -1 282 217)"/><path d="M65.5704 47.6148C65.5259 47.5704 65.4815 47.4222 65.4815 47.3037 65.4815 46.9704 65.2667 45.0741 65.1704 44.5926 64.9926 43.6593 64.9407 43.4222 64.8 42.9259 64.6593 42.4296 64.2815 41.3704 64.1481 41.1185 64.1185 41.0518 63.9185 40.6519 63.7037 40.2222 63.0444 38.8815 62.5111 38.0518 61.7556 37.163 61.4148 36.7556 61.4 36.7259 61.5037 36.563 61.6296 36.3704 62.4148 36.1259 62.8815 36.1333 63.6074 36.1481 64.7111 36.6741 65.4074 37.3481 65.8519 37.7778 66.4444 38.4889 66.4444 38.5852 66.4444 38.6222 66.5037 38.7037 66.5778 38.7556 66.6593 38.8074 66.7556 38.9259 66.8074 39.0222 66.8519 39.1111 66.9259 39.1852 66.963 39.1852 67.0815 39.1852 67.0518 38.9185 66.9259 38.8148 66.8667 38.763 66.8148 38.6741 66.8148 38.6148 66.8148 38.2741 65.9556 37.0593 65.163 36.2741 64.6741 35.8 64.6593 35.763 64.7556 35.6074 64.9185 35.363 65.5556 34.8963 65.8519 34.8074 66.6593 34.5704 67.3259 34.6593 68.2222 35.1185 68.5259 35.2815 68.8 35.4074 68.8296 35.4074 69 35.4074 68.8444 35.1037 68.5185 34.7778 68.3185 34.5778 68.1481 34.3778 68.1481 34.3333 68.1556 34.2148 68.3852 33.9778 68.7037 33.7704 69.3926 33.3259 69.437 33.3037 70.0148 33.2741 70.5333 33.2444 70.6296 33.2593 71.0741 33.4741 71.9926 33.9037 72.8963 34.9926 73.7185 36.6815 74.2667 37.7926 74.5259 38.4444 74.7111 39.1852 74.7704 39.4074 74.8519 39.6963 74.8889 39.8222 75.037 40.2815 75.1259 41.3852 75.0963 42.3704 75.0667 43.2963 75.0518 43.4 74.8593 43.7407 74.5852 44.2296 74.4148 44.4074 73.9556 44.6741 73.4444 44.963 72.5704 45.0518 72.3111 44.8444 72.163 44.7185 72.1556 44.6741 72.2222 44.4444 72.3481 44.0148 72.3111 42.9111 72.1481 42.3037 72.0667 42 72 41.6444 72 41.5185 72 41.2444 71.8148 40.9333 71.7481 41.1111 71.7259 41.1704 71.6963 41.8889 71.6815 42.7037 71.6518 44.1259 71.6444 44.2074 71.4444 44.6667 71.0815 45.5185 70.8889 45.7407 70.037 46.2593 69.7481 46.437 68.7185 46.5111 68.6222 46.363 68.5852 46.3037 68.5556 45.9778 68.5556 45.637 68.5556 44.9852 68.4296 44.7333 68.3333 45.2 68.2444 45.6444 67.6889 46.6519 67.3778 46.9481 66.8222 47.4667 65.8 47.8444 65.5704 47.6148Z" transform="matrix(1 0 0 -1 282 217)"/><path d="M32.7778 34.6963C32.6963 34.6889 31.9778 34.6222 31.1852 34.5556 28.9481 34.3704 27.9704 34.2444 26.7407 33.9556 25.4074 33.6519 24.8889 33.4 24.8889 33.0667 24.8889 32.8963 25.2 32.5926 25.3704 32.5926 25.4148 32.5926 25.5556 32.5407 25.6741 32.4889 25.9037 32.3704 26.6222 32.2 27.4074 32.0667 27.6741 32.0222 28.2741 31.9259 28.7407 31.8444 29.2148 31.7704 29.8 31.7037 30.037 31.7037 30.2815 31.7037 30.8519 31.6519 31.2963 31.5926 32.2222 31.4667 35.3037 31.2963 39.037 31.1778 40.9407 31.1185 42.3037 31.1185 44.3704 31.1778 47.9778 31.2889 50.9778 31.4444 52.1852 31.5852 52.7185 31.6519 53.3481 31.7037 53.6 31.7037 53.8444 31.7037 54.4074 31.7778 54.8593 31.8593 55.8667 32.0593 56.9259 32.0667 61.1852 31.8963 64.3407 31.7704 64.8 31.7778 69.6518 32 72.1111 32.1111 74.3926 32.4741 74.9111 32.8296 75.0222 32.9111 75.1111 33.0148 75.1111 33.0741 75.1111 33.2296 74.7556 33.4741 74.4519 33.5259 74.3037 33.5481 74.0296 33.6148 73.8296 33.6741 73.3556 33.8074 72.6444 33.8815 72.4074 33.8222 72.3037 33.7926 72.0963 33.6593 71.9407 33.5259 71.7926 33.3926 71.5037 33.1926 71.2963 33.0815 70.9704 32.9111 70.8444 32.8889 70.1926 32.8889 69.5259 32.8889 69.4148 32.9111 68.9852 33.1111 68.7111 33.2444 68.3481 33.4963 68.1333 33.7111 67.9333 33.9111 67.6963 34.1259 67.6074 34.1778 67.3926 34.3111 66.5037 34.4593 66.2 34.4148 66.0667 34.3926 64.8148 34.3556 63.4074 34.3333 62 34.3111 59.8815 34.2444 58.6889 34.1778 56.4593 34.0667 56.1556 34.0741 54.7778 34.3333 54.4519 34.3926 53.9852 34.4444 53.7407 34.4444 53.4963 34.4444 52.9333 34.4963 52.4889 34.5556 52.037 34.6148 51.2074 34.6889 50.6296 34.7111 49.6074 34.763 49.5852 34.7556 49.1481 34.563 48.9037 34.4519 48.5926 34.3111 48.4667 34.2519 48.3333 34.1926 48.1111 34.0963 47.9852 34.037 47.6074 33.8741 46.8963 33.6296 46.4444 33.5185 46.2222 33.4667 45.9407 33.3852 45.8148 33.3481 45.3259 33.1778 43.837 32.9407 42.9259 32.8889 41.7926 32.8296 39.9926 32.9185 39.3259 33.0667 39.0667 33.1259 38.6667 33.1926 38.4444 33.2222 38.2222 33.2519 37.9185 33.3185 37.7778 33.3778 37.637 33.4296 37.3556 33.5037 37.1481 33.5481 36.7481 33.6222 36.2148 33.8 35.7407 34 35.5778 34.0741 35.3704 34.1556 35.2815 34.1778 35.1926 34.2074 34.8889 34.3407 34.6 34.4815 34.1259 34.7111 34.0074 34.7407 33.4963 34.7333 33.1852 34.7259 32.8593 34.7111 32.7778 34.6963Z" transform="matrix(1 0 0 -1 282 217)"/><path d="M31.8 29.4444C31.7185 29.3852 31.5852 29.1926 31.5111 29.0222 31.3926 28.7407 31.3704 28.4444 31.3481 26.7111 31.3333 25.4667 31.2963 24.7556 31.2519 24.8222 31.2148 24.8815 31.1852 25.0444 31.1852 25.1852 31.1852 25.6074 31.0667 25.9259 30.6444 26.6296 30.4296 27 30.2074 27.4074 30.1556 27.5407 30.1037 27.6667 30.0296 27.7778 29.9926 27.7778 29.9556 27.7778 29.8296 27.9111 29.7111 28.0815 29.5926 28.2444 29.4741 28.3704 29.4519 28.3556 29.4296 28.3407 29.2519 28.4889 29.0593 28.6741 28.5259 29.1852 28.0593 29.437 27.7185 29.3778 27.5704 29.3556 27.237 29.3778 26.9778 29.4222 26.5481 29.5037 26.5037 29.4963 26.3111 29.3481 26.2 29.2593 25.8222 28.9852 25.4667 28.7407 25.1111 28.4889 24.6963 28.1333 24.5556 27.9481 24.2815 27.5852 24.0593 26.9481 23.9333 26.1481 23.8296 25.5185 23.8296 23.7926 23.9333 23.0593 24.0667 22.1185 24.4074 20.8741 24.7333 20.1852 24.9407 19.7481 25.0222 19.4815 24.9926 19.363 24.9556 19.2074 24.9926 19.1704 25.2667 19.0444 25.4444 18.9704 25.8741 18.7037 26.2074 18.4593 26.8519 17.9926 27.2148 17.8222 27.4963 17.8667 27.6148 17.8815 27.7556 17.7852 27.9926 17.5333 28.1704 17.3407 28.5185 17.0444 28.7704 16.8741 29.1852 16.5926 29.2741 16.563 29.7852 16.5333 30.3259 16.5037 30.3556 16.5111 30.5778 16.7111 30.7259 16.8444 30.8296 17.0296 30.8593 17.2074 30.9037 17.4519 30.8815 17.5037 30.6667 17.6889 30.5333 17.8 30.3037 18.0074 30.1481 18.1556 30 18.2963 29.7852 18.4815 29.6667 18.563L29.4667 18.7111 29.837 19.2296C30.4889 20.1259 30.9333 21.1481 31.2296 22.4074 31.2741 22.5926 31.2963 22.5259 31.4 21.963 31.563 21.0963 31.7926 20.4222 32.1111 19.8889 32.2519 19.6519 32.3704 19.4444 32.3704 19.4222 32.3704 19.4 32.4519 19.2815 32.5481 19.1556 32.9185 18.6667 33.8963 18.3111 34.8889 18.2963 35.8741 18.2815 36.3704 18.4593 37.0296 19.0667 37.2741 19.2963 37.5185 19.4815 37.5556 19.4815 37.6741 19.4815 37.8519 19.9481 37.8519 20.2444 37.8519 20.3778 37.8889 20.5259 37.9407 20.5778 38 20.637 38 20.6889 37.9481 20.7556 37.8667 20.8519 38.0148 22.7185 38.2222 24.2815 38.2667 24.6148 38.3185 25.5333 38.3481 26.3185L38.3852 27.7407 38.1037 28.2889C37.9481 28.5926 37.6889 28.9704 37.5259 29.1333L37.2296 29.4222 36.7481 29.3704C36.1185 29.3037 36.1037 29.2963 35.9704 28.9556 35.7926 28.5185 35.8222 27.2444 36.037 25.6 36.2519 23.9852 36.2667 23.3778 36.1111 22.5037 35.9333 21.4593 35.6741 21.0296 35.0667 20.7481 34.7407 20.5926 34.7037 20.5926 34.437 20.6963 34.2741 20.763 34.0741 20.8148 33.9778 20.8148 33.8889 20.8148 33.7037 20.8815 33.563 20.9704L33.3111 21.1185 33.363 22.5037C33.4889 26.3111 33.4963 26.8 33.4148 27.4074 33.2889 28.3926 33.1407 28.7778 32.7481 29.1926 32.3704 29.5852 32.1037 29.6593 31.8 29.4444ZM27.6741 29.237C28.2222 29.2222 28.5926 29 29.0444 28.4296 30.1481 27.0296 30.4963 24.8815 29.9704 22.6963 29.6963 21.5926 29.3556 20.5704 29.1481 20.2667 29.0444 20.1185 28.963 19.963 28.963 19.9259 28.963 19.8889 28.8741 19.7778 28.7704 19.6815 28.6519 19.5704 28.5704 19.3926 28.5407 19.2148 28.4963 18.8593 28.6148 18.7333 29.1852 18.5407 29.5259 18.4296 29.6222 18.3556 29.7926 18.0741 29.9556 17.8 29.9778 17.6889 29.9407 17.4444 29.8963 17.1926 29.8593 17.1481 29.6815 17.1259 29.563 17.1111 29.4519 17.0519 29.4296 16.9926 29.363 16.8222 29.2 16.8741 28.9259 17.1407 28.7556 17.3111 28.6296 17.3852 28.5333 17.3556 28.2741 17.2889 27.6 18.4593 27.6148 18.9481 27.6296 19.2296 27.4741 19.2667 27.2815 19.037 27.0519 18.7704 26.3111 18.8741 25.6963 19.2667 25.3333 19.4963 25.3259 19.5037 24.9259 20.4444 24.2593 22 23.9407 23.6815 24.0222 25.2815 24.1185 27.0889 24.5556 28.0815 25.5037 28.637 25.7556 28.7852 26.0741 29.0074 26.2148 29.1259 26.4444 29.3333 26.4963 29.3481 26.8444 29.3037 27.0519 29.2741 27.4222 29.2444 27.6741 29.237ZM32.2889 29.2074C32.3704 29.1333 32.4889 29.0296 32.5481 28.9778 32.7111 28.8519 32.7037 27.6667 32.5481 26.2741 32.3704 24.8 32.3704 22.7778 32.5407 22.1481 32.8074 21.163 33.1259 20.7185 33.6667 20.5778 33.8741 20.5259 34.0815 20.4444 34.1333 20.3926 34.3778 20.163 35.2222 20.3852 35.6519 20.8 35.9704 21.0963 36.1333 21.4741 36.3037 22.2815 36.5111 23.2444 36.4963 24.0889 36.2667 25.8444 36.0741 27.3111 36.0222 28.5852 36.1407 28.9111 36.2 29.0593 36.2815 29.0963 36.6 29.1407 36.8741 29.1778 37.0148 29.163 37.0815 29.0963 37.2667 28.9037 37.3481 27.3111 37.3556 23.7778 37.3556 22.4667 37.2593 20.9333 37.1556 20.7333 37.0889 20.6 37.037 20.437 37.037 20.3704 37.037 20.2074 36.6296 19.8222 36.5185 19.8889 36.4667 19.9185 36.4148 19.8815 36.3926 19.7852 36.3704 19.6963 36.3037 19.6296 36.237 19.6296 36.1778 19.6296 36.0667 19.5852 36.0074 19.5333 35.8741 19.4148 35.2 19.2074 34.8148 19.1556 34.6741 19.1333 34.4815 19.0963 34.3852 19.0741 34.2815 19.037 34.0815 19.0815 33.8444 19.1778 33.637 19.2667 33.3037 19.363 33.0963 19.3852 32.8074 19.4222 32.7111 19.4667 32.6444 19.6 32.6074 19.6963 32.5259 19.7778 32.4741 19.7778 32.3481 19.7778 31.8815 20.7407 31.7407 21.2889 31.5481 22.0519 31.4889 23.163 31.5185 25.7778 31.5407 28.4519 31.5852 28.8444 31.8963 29.1926 32.0519 29.363 32.1111 29.3704 32.2889 29.2074Z" transform="matrix(1 0 0 -1 282 217)"/><path d="M26.6889 28.3111C26.6667 28.2222 26.5407 28.0815 26.4074 28 25.9333 27.7037 25.4963 26.9259 25.2815 26 25.1185 25.2593 25.0889 22.9259 25.237 22.2222 25.363 21.6 25.6741 20.9407 25.9407 20.6815 26.1185 20.5185 26.8444 20.2222 27.0741 20.2222 27.1407 20.2222 27.3926 20.3259 27.637 20.4444 27.963 20.6148 28.1333 20.7556 28.2889 21.0074 28.7037 21.6593 29.0222 23.4148 28.9259 24.5111 28.8593 25.3259 28.5556 26.7333 28.3481 27.1926 28.0667 27.8296 27.763 28.1333 27.3481 28.1926 27.1556 28.2148 26.9407 28.2963 26.8667 28.3556 26.7481 28.4667 26.7333 28.4593 26.6889 28.3111ZM28.0963 27.0444C28.2296 26.9926 28.3037 26.8593 28.4296 26.4296 28.8741 24.9407 28.7852 22.6815 28.2444 21.4667 28.0296 20.9778 27.8593 20.8074 27.4148 20.637 27.1407 20.5333 27.0296 20.5259 26.7407 20.5926 26.5481 20.637 26.363 20.7407 26.3111 20.8222 26.0667 21.2074 25.9259 24.0519 26.0963 25.0148 26.3407 26.363 26.8815 27.0074 27.8296 27.1037 27.8741 27.1037 27.9926 27.0815 28.0963 27.0444Z" transform="matrix(1 0 0 -1 282 217)"/><path d="M51.9259 29.4963C51.3481 29.4444 51.1185 28.5333 51.1111 26.2741 51.1111 25.5185 51.0815 25.0444 51.0444 25.0741 50.9407 25.1333 49.9704 26.8519 49.7778 27.2963 49.5259 27.8889 49.2667 28.2148 48.6667 28.6593 47.7556 29.3481 47.4444 29.5037 47.0593 29.4593 46.4519 29.3926 46.4889 29.6296 46.4222 25.5704 46.3778 23.1185 46.3852 21.6667 46.437 21.037 46.5259 19.9704 46.6444 19.3037 46.7778 19.037 46.9037 18.8 47.5704 18.4593 47.963 18.4296 48.2593 18.4074 48.2593 18.4148 48.4963 18.8519 48.7185 19.2741 48.9481 20.1407 49.0148 20.7778 49.0296 20.9407 49.0667 21.1259 49.0815 21.1852 49.1037 21.2444 49.1259 21.6444 49.1333 22.0741 49.1333 22.5037 49.1556 23 49.1852 23.1852L49.2296 23.5185 49.4222 22.9259C49.5259 22.6 49.6519 22.1481 49.7037 21.9259 49.7556 21.7037 49.9037 21.2815 50.0444 20.9926 50.2963 20.4667 51.0148 19.4296 51.3185 19.1556 51.4074 19.0741 51.4815 18.9704 51.4815 18.9185 51.4815 18.8667 51.5556 18.7778 51.6519 18.7333 51.7407 18.6815 51.9111 18.5481 52.0296 18.437 52.1481 18.3185 52.3926 18.1704 52.5778 18.0963 52.8741 17.9852 52.9259 17.9852 53.1037 18.0815 53.4519 18.2741 53.4667 18.4963 53.4667 22.2963 53.4667 24.2296 53.4444 26.2815 53.4148 26.8519 53.3852 27.4222 53.3704 27.8963 53.3778 27.9111 53.3852 27.9259 53.4815 27.8519 53.5852 27.7481 54.0296 27.3407 55.2815 27.037 56.5185 27.037L56.8889 27.037 56.8889 25.0222C56.8889 23.9111 56.8519 22.2 56.8148 21.2222L56.7407 19.4444 56.9481 19.037C57.1333 18.6741 57.2074 18.6074 57.6815 18.363 58.1481 18.1259 58.2519 18.0963 58.4963 18.1481 58.7852 18.2148 58.963 18.3852 58.963 18.5926 58.963 18.6593 58.9852 18.7333 59.0074 18.763 59.0444 18.8 59.1333 19.8815 59.1185 20.1481 59.1111 20.2074 59.0963 20.4593 59.0815 20.7037 59.0667 20.9481 59.0222 21.8667 58.9778 22.7407 58.9407 23.6148 58.8963 24.4815 58.8815 24.6667 58.8667 24.8519 58.8593 25.4296 58.8593 25.9556 58.8667 26.7926 58.8889 26.9259 59.0074 27.0148 59.1111 27.0889 59.4593 27.1111 60.5185 27.0963 61.7185 27.0741 61.9185 27.0889 62.1333 27.2074L62.3704 27.3407 62.3704 25.0074C62.3704 23.7259 62.4074 22.4148 62.4519 22.0963 62.5481 21.4 62.9185 20.2296 63.163 19.8815 63.2593 19.7333 63.4 19.4963 63.4815 19.3407 63.6519 19.0074 64.1704 18.637 64.7037 18.4741 65.2222 18.3185 66.4074 18.2222 66.6963 18.3185 67.4222 18.5481 67.6148 18.6444 67.8815 18.8889 68.0518 19.037 68.3037 19.2519 68.4444 19.363 68.7778 19.637 68.8815 19.8222 68.8889 20.163 68.8889 20.3111 68.9185 20.4519 68.9556 20.4815 68.9926 20.5037 69.0074 20.6963 68.9926 20.9111 68.9556 21.2667 69.1778 23.6667 69.3185 24.4444 69.3926 24.8741 69.4815 22.9185 69.4815 20.8L69.4815 19.3259 69.7259 19.0741C69.8519 18.9407 70.0667 18.7111 70.1926 18.563 70.4667 18.2444 70.6667 18.2222 71.1407 18.4593 71.3481 18.5556 71.5185 18.7111 71.6222 18.8889 71.7704 19.163 71.7778 19.2296 71.7333 21.3407 71.7111 22.5407 71.7259 23.8 71.7556 24.1481L71.8222 24.7778 71.9852 24.4593C72.2519 23.963 72.6667 23.5481 73.1111 23.3556 73.3333 23.2519 73.6 23.1111 73.7111 23.0296 73.8222 22.9556 73.9852 22.8889 74.0741 22.8889 74.3185 22.8889 74.9111 23.5259 75.1185 24.0148 75.2148 24.2519 75.3185 24.4444 75.3407 24.4444 75.3926 24.4444 75.4667 23.0519 75.5333 20.7778L75.5778 19.0741 75.9926 18.6444C76.5037 18.1185 76.837 18.0296 77.3111 18.2963 77.7926 18.563 77.8815 18.7926 77.9111 19.8 77.9259 20.2741 77.9704 20.6667 78.0074 20.6667 78.1111 20.6667 78.0815 20.8593 77.963 20.963 77.9037 21.0148 77.8519 21.1556 77.8519 21.2889 77.8519 21.4148 77.7926 22.4889 77.7111 23.6667 77.637 24.8519 77.5481 26.3185 77.5259 26.9259 77.4963 27.5407 77.437 28.1556 77.4 28.3111 77.363 28.4593 77.1852 28.7852 77 29.0296L76.6667 29.4815 76.237 29.4815C75.3704 29.4815 74.6815 29.1259 74.3778 28.5259 74.3037 28.3778 74.1704 28 74.0815 27.6815 73.9926 27.363 73.8593 26.9778 73.7852 26.8296L73.6444 26.5556 73.563 26.7704C73.4296 27.1111 72.7111 28.0741 72.2815 28.4963 72.0667 28.7037 71.6889 28.9852 71.4444 29.1185 71.0222 29.3481 70.9556 29.363 70.237 29.363 69.2815 29.3704 69.2296 29.3259 69.2815 28.5704 69.2963 28.2963 69.3037 28.0815 69.2963 28.0889 69.2815 28.1037 69.1556 28.3185 69.0074 28.5704 68.8593 28.8222 68.6222 29.1185 68.4815 29.2296 68.237 29.4148 68.2 29.4222 67.7333 29.363 67.3111 29.3037 67.2148 29.2667 67.0815 29.0889 66.9407 28.8963 66.9259 28.7852 66.9333 27.7185 66.9407 26.9556 66.9926 26.1778 67.0963 25.4444 67.2889 24.1333 67.3037 23.3111 67.1407 22.4148 67.0074 21.6519 66.8444 21.2889 66.5037 21 66.0889 20.6444 65.8148 20.5704 65.4593 20.6963 65.2889 20.7481 65.0074 20.837 64.837 20.8815 64.6444 20.9333 64.4889 21.0296 64.437 21.1259 64.3704 21.2519 64.3704 21.8444 64.4444 23.6296 64.5778 26.7704 64.5037 28.0815 64.1481 28.7333 64.0963 28.8296 63.9259 29.0519 63.763 29.2296 63.4 29.6222 63.0741 29.6667 62.7778 29.3778 62.6148 29.2148 62.4444 28.7778 62.4444 28.5037 62.4444 28.4296 62.4296 28.3704 62.4074 28.3704 62.3333 28.3704 61.9333 28.8593 61.8519 29.0444 61.8 29.1704 61.6667 29.2741 61.4815 29.3333 61.2222 29.4148 61.0963 29.4074 60.4074 29.2593 59.637 29.0889 59.6148 29.0815 58.9778 29.2074 58.0889 29.3778 54.5037 29.5259 54.0667 29.4074 53.763 29.3259 53.4 29.037 53.3185 28.8148 53.2889 28.7259 53.237 28.7407 53.0667 28.8963 52.8296 29.0963 52.3778 29.437 52.2593 29.4889 52.2222 29.5037 52.0667 29.5111 51.9259 29.4963ZM47.5259 29.2148C47.6667 29.1481 47.7778 29.0519 47.7778 29 47.7778 28.9556 47.8593 28.8741 47.963 28.8296 48.3111 28.6741 48.9037 27.5852 49.6222 25.8 50.8074 22.8667 51.0815 22.2593 51.2 22.237 51.4148 22.1926 51.4593 22.4519 51.4 23.4074 51.3185 24.7778 51.3185 27.5259 51.4074 28.1333 51.5037 28.8 51.6815 29.2593 51.8444 29.2593 52.1926 29.2593 52.4963 28.6148 52.4148 28.0444 52.3778 27.7333 52.3111 26.9111 52.2667 26.1111 52.237 25.5778 52.3111 24.637 52.5111 22.8889 52.6815 21.4667 52.7037 19.837 52.563 19.3704 52.4519 18.9852 52.1704 18.8296 51.837 18.9704 51.4 19.1481 50.3778 20.5926 50.1259 21.3704 50.0667 21.5778 49.9407 22.0593 49.8519 22.4444 49.7111 23.0519 49.2444 24.2667 49.1037 24.3704 49 24.4519 48.6 25.3259 48.4815 25.7259 48.3556 26.163 48.2296 26.2519 47.9926 26.0593 47.8963 25.9778 47.8889 25.8222 47.9333 25.037 48.0074 23.8296 48.0074 20.0519 47.9259 19.6444 47.8519 19.2444 47.7926 19.1852 47.4296 19.1333 47.1556 19.0963 47.1259 19.1111 46.9778 19.3556 46.6889 19.8519 46.6296 20.7852 46.6519 24.4444 46.6667 26.2963 46.6963 28.1333 46.7259 28.5185 46.7778 29.1778 46.7852 29.2222 46.963 29.2667 47.237 29.3407 47.2519 29.3407 47.5259 29.2148ZM57 29.1852C58.1778 29.1407 58.7704 29.0889 59.1259 28.9926 59.5704 28.8741 59.6741 28.8667 60.163 28.9556 61.2667 29.1556 61.363 29.1481 61.5185 28.9185 61.637 28.7333 61.6444 28.6889 61.5407 28.4148 61.4222 28.0815 61.4593 28.0963 60.5556 28.1481 60.3926 28.163 59.8148 28.1407 59.2741 28.1111 58.0148 28.037 57.9704 28 57.9778 27.2889 57.9778 27.0074 58.037 26.1111 58.1037 25.2963 58.3333 22.5185 58.437 20.3852 58.3704 19.963 58.2667 19.3333 58.0963 19.1037 57.7185 19.0963 57.4741 19.0889 57.0518 19.2519 57.0074 19.3778 56.9926 19.4222 57.0074 20.7556 57.0444 22.3407 57.1259 26.3111 57.1407 27.9704 57.0815 28.0667 57.0074 28.1778 56.6296 28.1704 56.1259 28.037 55.6222 27.9037 54.7185 27.8889 54.2593 28.0074 53.8889 28.1037 53.4815 28.4593 53.4815 28.6963 53.4889 29.1259 54 29.3556 54.8148 29.2963 55.1185 29.2741 56.1037 29.2222 57 29.1852ZM63.3037 29.2222C63.3333 29.163 63.3926 29.1111 63.4519 29.1111 63.7556 29.1111 63.8 28.163 63.5852 26.1481 63.4296 24.6444 63.4296 22.8519 63.5852 22.1704 63.7556 21.4593 64.1852 20.7407 64.5259 20.6222 64.6667 20.5704 64.8519 20.5259 64.9333 20.5259 65.0222 20.5185 65.1333 20.4667 65.1852 20.4074 65.3704 20.1852 66.1185 20.3259 66.5852 20.6741 66.9704 20.9556 67.2444 21.5852 67.4148 22.5926 67.5852 23.6 67.563 24.1852 67.2593 26.3037 67.1111 27.3185 67.0741 28.5259 67.1778 28.8889 67.2222 29.0444 67.2889 29.0815 67.6148 29.1333 68.3333 29.2519 68.3333 29.2444 68.4148 25.6444 68.4519 24.0815 68.437 23.5259 68.3704 23.4519 68.3111 23.3704 68.3037 23.3037 68.3704 23.1926 68.5111 22.9259 68.3481 20.8519 68.1704 20.6519 68.1111 20.5852 68.0815 20.4963 68.1111 20.4519 68.1852 20.3259 67.763 19.8519 67.5778 19.8519 67.4741 19.8519 67.4074 19.8074 67.4074 19.7407 67.4074 19.6815 67.3407 19.6296 67.2593 19.6296 67.1852 19.6296 67.0889 19.5852 67.0593 19.5259 67 19.4222 66.9037 19.3926 66.2222 19.2519 66 19.2074 65.6963 19.1407 65.5481 19.0963 65.3259 19.037 65.2222 19.0444 64.9333 19.1778 64.7407 19.2593 64.4593 19.3481 64.3111 19.3704 63.7852 19.4593 63.7037 19.4815 63.7037 19.5926 63.7037 19.6519 63.637 19.7333 63.563 19.7704 63.2741 19.9333 62.9259 20.7185 62.6889 21.7407 62.5704 22.2593 62.5556 22.6889 62.563 25.2593 62.5704 28.3259 62.6074 28.7185 62.9259 29.1704 63.0593 29.3556 63.2444 29.3852 63.3037 29.2222ZM76.5704 29.037C76.6815 28.8222 76.6889 28.037 76.5926 27.2963 76.5185 26.7333 76.5926 25.7185 76.7852 24.6889 76.8741 24.1926 76.8741 24.0519 76.8 23.9333 76.7259 23.8074 76.7259 23.763 76.8296 23.6889 76.9852 23.563 77.163 21.6741 77.0296 21.5111 76.963 21.4296 76.9704 21.3778 77.037 21.2963 77.1556 21.1556 77.0963 19.7407 76.9556 19.3556 76.8741 19.1185 76.8667 19.1111 76.4222 19.1111 76.0296 19.1111 75.9407 19.1407 75.7852 19.2963 75.6148 19.4815 75.6148 19.5037 75.637 20.7259 75.6815 22.8222 75.6222 26.9111 75.5407 27.1704 75.5037 27.2963 75.4296 27.4074 75.3852 27.4074 75.237 27.4074 75.0222 26.9481 74.9185 26.4222 74.8593 26.1111 74.7333 25.7852 74.6 25.5852 74.4815 25.4 74.3407 25.0889 74.2963 24.8889 74.2444 24.6815 74.1778 24.4963 74.1407 24.4741 74.1037 24.4519 74.0741 24.363 74.0741 24.2815 74.0741 23.9852 73.8667 23.8519 73.3926 23.8519 72.637 23.8519 72.4519 24.0222 71.8296 25.2963 71.5704 25.8296 71.2741 26.4963 71.1852 26.7778 71.0148 27.2889 70.8593 27.5481 70.7778 27.4667 70.7481 27.4444 70.7259 26.7926 70.7185 26.0222 70.7037 24.9481 70.7259 24.5852 70.8 24.4963 70.9482 24.3185 71 22.8741 70.8741 22.3333 70.8074 22.037 70.7926 21.7481 70.8296 21.4815 70.8593 21.2593 70.8889 20.763 70.8963 20.3926 70.9111 19.6444 70.837 19.4519 70.4963 19.2667 70.3259 19.1778 70.2741 19.1852 70.0296 19.3111L69.7481 19.4519 69.7333 20.4889C69.7259 21.0519 69.6889 22.2222 69.6444 23.0741 69.5926 23.9333 69.5407 25.6593 69.5185 26.9185L69.4741 29.2 70.2 29.1704C71.2889 29.1333 71.5852 28.8815 71.8889 27.7704 71.9556 27.5407 72.1111 27.1926 72.2444 26.9926 72.3704 26.7926 72.6222 26.2815 72.7926 25.8519 72.963 25.4296 73.1481 25.0593 73.1926 25.0444 73.3037 25.0074 73.4074 25.1778 73.4074 25.3852 73.4074 25.6074 73.563 25.9259 73.6593 25.9259 73.7037 25.9259 73.8148 26.1704 73.9037 26.4667 73.9926 26.7556 74.1481 27.2889 74.2519 27.637 74.5407 28.6074 74.8296 28.9556 75.5259 29.1481 76.0815 29.3037 76.4593 29.2593 76.5704 29.037Z" transform="matrix(1 0 0 -1 282 217)"/><path d="M42.0667 29.1185C41.6074 29.0519 41.5185 28.963 41.3333 28.3926 41.2444 28.1185 41.1111 27.7778 41.037 27.637 40.8889 27.3407 40.5407 26.1185 40.2963 25 40.0222 23.763 39.7111 22.8 39.4519 22.3704 38.8074 21.3111 38.2222 19.9333 38.2222 19.4815 38.2222 19.3704 38.2741 19.237 38.3333 19.1852 38.3926 19.1407 38.4593 19.0222 38.4889 18.9407 38.6815 18.3185 39.3556 18.0444 39.8889 18.3704 40.1556 18.5333 40.5926 19.2963 40.7407 19.837 40.8519 20.2519 41.2889 21.2222 41.4 21.2889 41.4519 21.3185 41.8963 21.3407 42.3926 21.3333 42.8889 21.3259 43.3556 21.3185 43.4296 21.3185 43.5259 21.3259 43.6815 21.0815 44.0148 20.3852 44.2593 19.8667 44.4593 19.3556 44.4519 19.2444 44.4296 18.7852 45.8148 18.1111 46.2815 18.363 46.637 18.5556 46.5407 19.3778 45.9778 20.9259 45.7704 21.4963 45.6074 22.0148 45.6074 22.0741 45.6074 22.1333 45.5852 22.2222 45.5481 22.2593 45.4815 22.3481 44.6667 24.7185 44.0296 26.6741 43.8148 27.3481 43.5556 28.0222 43.4519 28.163 43.3556 28.3111 43.2519 28.4963 43.2222 28.5778 43.2 28.6667 43.0815 28.837 42.963 28.9556 42.7481 29.1926 42.6889 29.2074 42.0667 29.1185ZM42.8296 28.9481C42.8296 28.8963 42.8444 28.8222 42.8444 28.7778 42.8519 28.7407 42.9111 28.6222 42.9778 28.5185 43.0444 28.4148 43.1852 27.9704 43.2889 27.5185 43.4 27.0741 43.5704 26.3407 43.6741 25.8889 43.7852 25.4444 43.9111 24.9778 43.963 24.8519 44.0148 24.7333 44.0815 24.5481 44.1111 24.4444 44.1407 24.3407 44.3037 23.9111 44.4815 23.4815 44.7037 22.9556 44.8667 22.3852 44.9926 21.7185 45.1111 21.0815 45.2741 20.5333 45.437 20.163 45.837 19.2667 45.837 19.2963 45.4444 19.1852 45.1556 19.1037 45.0889 19.1111 44.9259 19.2148 44.7111 19.3556 44.4444 19.8741 44.037 20.9037 43.8815 21.3037 43.6593 21.7333 43.5481 21.8667L43.3481 22.1111 42.1185 22.1111C40.7333 22.1037 40.7778 22.1185 40.5556 21.5185 40.4815 21.3185 40.2593 20.8667 40.0667 20.5185 39.8741 20.1704 39.6593 19.7481 39.5926 19.5704 39.4444 19.2 39.2741 19.1333 38.8519 19.2741 38.637 19.3481 38.5481 19.4148 38.5333 19.5407 38.4963 19.7778 39.2815 21.7185 39.637 22.2667 39.8741 22.637 39.9704 22.8963 40.1778 23.8222 40.7111 26.1259 40.8296 26.5852 41.1852 27.6222 41.3852 28.2074 41.6074 28.7481 41.6741 28.8222 41.837 29 42.8074 29.1037 42.8296 28.9481Z" transform="matrix(1 0 0 -1 282 217)"/><path d="M42.1481 27.2889C42.1481 27.1407 41.3037 24.5926 41.1481 24.2519 41.0889 24.1185 41 23.8444 40.9481 23.6296 40.8296 23.1037 40.8815 23.0741 42.0593 23.0148 43.1333 22.963 43.3037 22.9852 43.3852 23.2148 43.4593 23.4296 43.437 24.1852 43.3333 24.7481 43.1926 25.5407 42.6741 27.2148 42.5407 27.3185 42.363 27.4444 42.1481 27.4296 42.1481 27.2889ZM43.0444 25.0963C43.2074 24.5852 43.3111 23.6815 43.2296 23.3778 43.1852 23.1852 43.1778 23.1852 42.4815 23.1852 41.8222 23.1852 41.7778 23.1926 41.7778 23.3333 41.7778 23.5704 42.0444 24.3111 42.4148 25.0963 42.7926 25.8963 42.7852 25.8963 43.0444 25.0963Z" transform="matrix(1 0 0 -1 282 217)"/><path d="M35.037 17.4889 34.8519 17.437 34.8519 15C34.8519 13.6519 34.8593 11.4741 34.8741 10.1481 34.8815 8.82222 34.8815 7.58519 34.8741 7.39259 34.8444 6.94815 35.037 6.68148 35.5259 6.48889 35.8222 6.37037 36.0741 6.34074 36.8889 6.34074 38.0518 6.34074 38.2741 6.39259 39.2963 6.9037 40.1333 7.31852 40.2815 7.44444 40.8519 8.18519 41.9407 9.60741 42.1556 11.7778 41.4074 13.6667 41.0593 14.5333 40.5185 15.5556 40.4 15.5556 40.3481 15.5556 40.163 15.7704 40 16.0296 39.8296 16.2963 39.5704 16.6148 39.4222 16.7481 39.0963 17.037 38.4 17.363 37.8667 17.4741 37.4444 17.563 35.3407 17.5778 35.037 17.4889ZM37.5259 17.2519C38.9778 17.0519 39.6593 16.4444 40.4444 14.6593 40.837 13.7778 40.963 13.2444 40.963 12.4889 40.963 11.0593 40.4667 8.94815 40.0963 8.80741 40.0074 8.77778 39.9259 8.68148 39.9259 8.60741 39.9259 8.52593 39.7704 8.37778 39.5037 8.22222 39.2667 8.08148 38.8148 7.77037 38.4963 7.54074L37.9185 7.11111 37.3481 7.15556C37.037 7.17778 36.7407 7.20741 36.6889 7.22222 36.637 7.23704 36.5111 7.20741 36.4 7.14815 36.2889 7.0963 36.0074 7.04444 35.7704 7.04444 35.4222 7.04444 35.2963 7.08148 35.1481 7.20741 34.9778 7.36296 34.9704 7.38519 35.0518 7.77778 35.1481 8.23704 35.163 9.83704 35.1111 14.1259 35.0889 15.763 35.0963 17.1185 35.1185 17.1407 35.2741 17.3037 36.7037 17.3704 37.5259 17.2519Z" transform="matrix(1 0 0 -1 282 217)"/><path d="M36.4741 16.0222C36.0741 15.8222 36.037 15.6 36.0518 13.4074 36.0593 12.3259 36.0889 10.7185 36.1185 9.83704L36.163 8.22963 36.5333 8.15556C36.9926 8.05185 37.5037 8.18519 38.2667 8.6 38.9111 8.95555 38.9407 8.98518 39.3556 9.81481 40.0222 11.1556 40.0593 12.2222 39.4815 13.9852 39.1333 15.0519 39.0667 15.1852 38.7704 15.5185 38.5407 15.7704 38.4074 15.8444 38.1481 15.8889 37.963 15.9185 37.7259 15.9926 37.6148 16.0444 37.3556 16.1778 36.763 16.1704 36.4741 16.0222ZM38.2741 15.1926C38.763 14.9926 38.7852 14.9704 39.0148 14.5037 39.1481 14.237 39.3481 13.6889 39.4593 13.2889 39.6296 12.6741 39.6667 12.4148 39.6593 11.6667 39.6593 10.8593 39.637 10.7259 39.4444 10.2741 39.1926 9.65926 38.7852 9.12593 38.3407 8.82222 38 8.58519 37.1185 8.33333 37.0148 8.43704 36.9852 8.46667 36.9556 9.93333 36.9407 11.6963 36.9259 14.6741 36.9333 14.9037 37.0593 14.9926 37.1259 15.0444 37.1852 15.1407 37.1852 15.2 37.1852 15.2593 37.2074 15.3333 37.237 15.3556 37.3407 15.4667 37.7926 15.4 38.2741 15.1926Z" transform="matrix(1 0 0 -1 282 217)"/><path d="M50.5704 17.3037C49.4444 16.9037 49.6222 15.7704 50.8815 15.3037 51.3778 15.1185 52.3852 14.963 53.1037 14.963L53.5037 14.963 53.437 11.763C53.3407 6.97778 53.3333 7.20741 53.5704 6.84444 53.7111 6.62222 53.9037 6.47407 54.2741 6.28889 54.7259 6.05926 54.8148 6.03704 55.0963 6.0963 55.4148 6.15556 55.4222 6.16296 55.6 6.65926 55.6296 6.76296 55.7185 7.94815 55.6963 8.11111 55.6667 8.44444 55.4741 11.8074 55.4741 12.1481 55.4741 12.3333 55.4593 12.9111 55.437 13.4296 55.3778 14.6815 55.4148 14.8667 55.7481 15.0074 55.9778 15.1037 56.1407 15.1037 56.8889 15.0296 57.9778 14.9185 58.5111 14.9778 58.8222 15.2444 59.037 15.4222 59.0518 15.4593 59.0222 15.8296 58.9926 16.1259 58.9333 16.2889 58.7556 16.5111 58.6222 16.6741 58.4815 16.8889 58.437 16.9852 58.3852 17.0963 58.2444 17.2 58.0667 17.2593 57.8222 17.3407 57.6889 17.3333 57.0148 17.1852 56.2593 17.0148 56.237 17.0148 55.5481 17.1407 55.163 17.2074 54.1037 17.2963 53.1852 17.3333 51.0667 17.4222 50.9111 17.4222 50.5704 17.3037ZM53.5926 17.1185C54.7778 17.0741 55.3556 17.0148 55.7185 16.9185 56.1704 16.7926 56.2593 16.7926 56.7926 16.8889 57.6741 17.0444 57.9185 17.037 58.0815 16.8148 58.2148 16.637 58.2222 16.6148 58.0963 16.3037L57.9704 15.9852 57.637 16.037C57.4519 16.0667 57.2 16.0889 57.0741 16.0963 56.7407 16.0963 55.0222 15.9926 54.837 15.9556 54.5333 15.8963 54.4963 15.5556 54.6222 14.0222 54.8 11.9111 54.8815 10.6148 54.9333 9.11111 54.9778 7.77778 54.9704 7.73333 54.8 7.40741 54.6519 7.11111 54.6 7.07407 54.3481 7.05185 54.0593 7.02963 53.6519 7.16296 53.6 7.3037 53.5852 7.34815 53.6 8.76296 53.637 10.4519 53.7333 15.1926 53.7333 15.9259 53.6444 16.0148 53.5333 16.1259 53.3037 16.1111 52.7556 15.9704 52.2 15.8296 51.2148 15.8148 50.8 15.9407 50.4222 16.0519 50.0741 16.3778 50.0741 16.6074 50.0741 17.0593 50.5704 17.2815 51.4074 17.2222 51.7111 17.2 52.6963 17.1481 53.5926 17.1185Z" transform="matrix(1 0 0 -1 282 217)"/><path d="M45.4963 17.0444C45.0889 16.9778 45.0074 16.8889 44.7852 16.2593 44.6815 15.9778 44.5037 15.4741 44.3852 15.1481 44.2667 14.8222 44.0593 14.0889 43.9259 13.5185 43.5704 11.9852 43.2741 10.9704 43.0815 10.5926 42.9852 10.4074 42.7333 9.93333 42.5185 9.52593 42.0963 8.73333 41.7037 7.72593 41.7037 7.44444 41.7037 7.34815 41.7481 7.22222 41.8 7.17037 41.8519 7.11852 41.9407 6.96296 41.9926 6.82963 42.1481 6.45926 42.5481 6.14815 42.8667 6.14815 43.4444 6.14815 43.8963 6.73333 44.3259 8.03704 44.4296 8.36296 44.6 8.76296 44.6889 8.92593 44.837 9.18519 44.8963 9.22963 45.1852 9.25926 45.3704 9.28148 45.8667 9.28148 46.2963 9.27407L47.0741 9.24444 47.5185 8.27407C47.763 7.74074 47.9481 7.22963 47.9407 7.14074 47.9111 6.9037 48.363 6.56296 48.9704 6.37037 49.8593 6.08148 50.0889 6.28148 49.9407 7.22222 49.8889 7.53333 49.6889 8.23704 49.4815 8.8 49.2815 9.35556 49.1111 9.88148 49.1111 9.96296 49.1111 10.0519 49.0815 10.1481 49.0444 10.1852 49 10.2296 48.563 11.4741 48.0667 12.963 47.5704 14.4519 47.0963 15.7926 47.0074 15.9556 46.9259 16.1111 46.7926 16.363 46.7185 16.5111 46.4148 17.1037 46.2667 17.163 45.4963 17.0444ZM46.3111 16.8741C46.3111 16.8222 46.3259 16.7481 46.3259 16.7037 46.3333 16.6667 46.3926 16.5481 46.4593 16.4444 46.5259 16.3407 46.6667 15.8963 46.7704 15.4444 47.3407 13.0593 47.5407 12.3852 47.9556 11.4222 48.2519 10.7481 48.3259 10.4963 48.5111 9.45926 48.6 8.98518 48.7556 8.45185 48.9111 8.0963 49.3185 7.18518 49.3185 7.20741 48.9481 7.1037 48.3704 6.94815 48.1926 7.15556 47.5778 8.6963 47.3556 9.25926 47.1333 9.67407 46.9852 9.83704L46.7407 10.0963 45.5481 10.0593C44.6667 10.0296 44.3333 9.99259 44.2667 9.91852 44.2148 9.85926 44.1037 9.62963 44.0222 9.40741 43.9407 9.17778 43.7037 8.7037 43.4963 8.34074 43.2889 7.97778 43.0963 7.58519 43.0741 7.46667 43 7.15556 42.763 7.06667 42.3556 7.19259 42.1185 7.26667 42.0296 7.34074 42.0148 7.46667 41.9778 7.68889 42.763 9.64444 43.0667 10.1111 43.3852 10.5926 43.4444 10.7556 43.6741 11.7778 44.2148 14.2222 44.8741 16.4444 45.1481 16.7407 45.3185 16.9259 46.2889 17.037 46.3111 16.8741Z" transform="matrix(1 0 0 -1 282 217)"/><path d="M45.6667 15.2444C45.6444 15.1926 45.5333 14.8148 45.4074 14.4074 45.2815 14 45.1556 13.6 45.1185 13.5185 45.0815 13.437 44.9778 13.1556 44.8889 12.8889 44.8074 12.6222 44.6889 12.3037 44.6296 12.1778 44.437 11.763 44.3333 11.1926 44.4296 11.0963 44.5259 11 46.2074 10.8667 46.5704 10.9259 46.7259 10.9556 46.8222 11.0222 46.8667 11.1333 46.9481 11.3926 46.9111 12.2296 46.7852 12.8667 46.5926 13.7926 46.163 15.1407 46.0222 15.237 45.8593 15.3556 45.7111 15.3556 45.6667 15.2444ZM46.6 12.7481C46.7407 12.2074 46.7852 11.4593 46.6963 11.2296 46.6593 11.1333 46.5185 11.1111 45.9556 11.1111 45.4444 11.1111 45.2593 11.1333 45.2593 11.2074 45.2667 11.4963 45.4667 12.0667 45.837 12.8741L46.2593 13.7926 46.3556 13.5407C46.4148 13.4074 46.5259 13.0519 46.6 12.7481Z" transform="matrix(1 0 0 -1 282 217)"/><path d="M62.6074 17.0444C62.2 16.9778 62.1185 16.8889 61.8963 16.2593 61.7926 15.9778 61.6148 15.4741 61.4963 15.1481 61.3778 14.8222 61.1852 14.1704 61.0741 13.7037 60.6519 11.9037 60.363 10.9111 60.1481 10.5185 59.5481 9.40741 59.0296 8.28148 58.9185 7.85185L58.7926 7.36296 59.0963 6.84444C59.2741 6.53333 59.4741 6.28889 59.5926 6.23704 59.9852 6.05185 60.437 6.16296 60.7259 6.51852 60.9037 6.73333 61.237 7.44444 61.4 7.96296 61.4889 8.25185 61.6519 8.65185 61.763 8.85185 61.9481 9.2 61.9852 9.22222 62.2963 9.25926 62.8074 9.31852 64.2222 9.25926 64.2222 9.17778 64.2222 9.14074 64.4074 8.71852 64.637 8.24444 64.8667 7.76296 65.0518 7.28148 65.0444 7.17037 65.0222 6.71111 66.4148 6.04444 66.8815 6.28889 67.2296 6.47407 67.1111 7.40741 66.5481 8.92593 66.363 9.41481 66.2074 9.88148 66.2074 9.96296 66.2 10.0444 66.1704 10.1481 66.1407 10.1926 66.0815 10.2667 65.1111 13.1037 64.5111 14.9259 64.3556 15.4148 64.1556 15.9185 64.0741 16.037 63.9852 16.163 63.8741 16.3704 63.8148 16.4963 63.7556 16.6296 63.6296 16.8222 63.5259 16.9259 63.3333 17.1185 63.1926 17.1333 62.6074 17.0444ZM63.4444 16.7704C63.4519 16.6815 63.4889 16.563 63.5333 16.5111 63.6444 16.3778 63.8519 15.6444 64.1852 14.1852 64.3407 13.5333 64.5037 12.9037 64.5556 12.7778 64.6148 12.6593 64.6815 12.4593 64.7111 12.3333 64.7407 12.2148 64.8889 11.8296 65.0444 11.4815 65.363 10.7556 65.4296 10.5185 65.6222 9.45926 65.7111 8.98518 65.8667 8.44444 66.0222 8.0963 66.4148 7.21481 66.4148 7.21481 66.0222 7.11111 65.4593 6.97037 65.2667 7.20741 64.6296 8.82963 64.4741 9.22963 64.2519 9.65926 64.1407 9.79259L63.9407 10.037 62.7111 10.037C61.3259 10.0296 61.363 10.0444 61.1481 9.44444 61.0741 9.24444 60.8593 8.79259 60.6593 8.44444 60.4667 8.0963 60.2519 7.67407 60.1778 7.4963 60.037 7.12593 59.8667 7.05926 59.4444 7.2 59.2074 7.27407 59.1407 7.34074 59.1259 7.48889 59.0963 7.72593 59.9259 9.77037 60.1778 10.1111 60.4296 10.4444 60.563 10.7852 60.7333 11.5852 61.1852 13.6741 61.9111 16.1926 62.2 16.6963 62.2815 16.8444 62.763 16.9556 63.2222 16.9333 63.3926 16.9259 63.4444 16.8889 63.4444 16.7704Z" transform="matrix(1 0 0 -1 282 217)"/><path d="M62.7407 15.2148C62.7407 15.1037 62.163 13.3556 61.6667 11.963 61.437 11.3111 61.4296 11.1259 61.6519 11.0444 61.8593 10.9704 63.5407 10.8815 63.7556 10.9333 63.9704 10.9926 64.0296 11.1852 64.0222 11.7556 64 12.6889 63.4 15.037 63.1333 15.2444 62.9556 15.3704 62.7407 15.3556 62.7407 15.2148ZM63.6 13.1333C63.8074 12.4593 63.9037 11.637 63.8222 11.3037 63.7778 11.1111 63.763 11.1111 63.0741 11.1111 62.2593 11.1111 62.2741 11.0963 62.5111 11.8296 62.6296 12.2074 63.3333 13.7778 63.3778 13.7778 63.3926 13.7778 63.4889 13.4889 63.6 13.1333Z" transform="matrix(1 0 0 -1 282 217)"/></g></svg>